<?xml version="1.0"?>
<svg xmlns="http://www.w3.org/2000/svg" id="Capa_1" enable-background="new 0 0 480.026 480.026" height="512px" viewBox="0 0 480.026 480.026" width="512px" class=""><g><path d="m112.019 352.013c43.283.072 82.712-24.864 101.2-64h34.8c1.58 0 3.124-.468 4.438-1.344l19.562-13.041 19.562 13.041c2.687 1.792 6.189 1.792 8.876 0l19.562-13.041 19.562 13.041c2.687 1.792 6.189 1.792 8.876 0l19.562-13.041 19.562 13.041c2.687 1.792 6.189 1.792 8.876 0l19.562-13.041 19.562 13.041c3.452 2.303 8.092 1.584 10.685-1.656l32-40c2.34-2.923 2.34-7.077 0-10l-32-40c-1.519-1.897-3.817-3.001-6.247-3h-226.8c-26.51-55.887-93.306-79.703-149.193-53.193s-79.703 93.306-53.193 149.193c18.539 39.084 57.928 63.997 101.186 64zm326.335-82.725-17.9-11.931c-2.687-1.792-6.189-1.792-8.876 0l-19.559 13.041-19.562-13.041c-2.687-1.792-6.189-1.792-8.876 0l-19.562 13.041-19.562-13.041c-2.687-1.792-6.189-1.792-8.876 0l-19.562 13.041-19.562-13.041c-2.687-1.792-6.189-1.792-8.876 0l-21.984 14.656h-13.578v-24h223.355zm-326.335-125.275c38.775-.059 73.761 23.265 88.62 59.08 1.242 2.978 4.153 4.919 7.38 4.92h228.155l19.2 24h-231.355c-4.418 0-8 3.582-8 8v32h-8c-3.228 0-6.14 1.941-7.383 4.92-20.39 48.942-76.595 72.087-125.537 51.697s-72.087-76.595-51.697-125.537c14.906-35.776 49.861-59.08 88.617-59.08z" data-original="#000000" class="active-path" data-old_color="#000000" fill="#E00000"/><path d="m72.019 272.013c17.673 0 32-14.327 32-32s-14.327-32-32-32-32 14.327-32 32c.02 17.665 14.335 31.98 32 32zm0-48c8.837 0 16 7.163 16 16s-7.163 16-16 16-16-7.163-16-16c.011-8.832 7.168-15.99 16-16z" data-original="#000000" class="active-path" data-old_color="#000000" fill="#E00000"/><path d="m392.019 24.013c.002-13.255-10.742-24.002-23.997-24.003-13.255-.002-24.002 10.742-24.003 23.997-.001 10.172 6.41 19.24 16 22.631v12.432l-27.578 13.789c-2.71 1.355-4.422 4.125-4.422 7.155v64h16v-59.057l27.578-13.789c2.71-1.355 4.422-4.125 4.422-7.155v-17.376c9.581-3.4 15.987-12.458 16-22.624zm-24 8c-4.418 0-8-3.582-8-8s3.582-8 8-8 8 3.582 8 8c-.005 4.416-3.584 7.995-8 8z" data-original="#000000" class="active-path" data-old_color="#000000" fill="#E00000"/><path d="m16.019 46.637v25.376c0 2.675 1.337 5.172 3.562 6.656l44.438 29.625v11.719h16v-16c0-2.675-1.337-5.172-3.563-6.656l-44.437-29.625v-21.095c12.497-4.418 19.046-18.131 14.627-30.627s-18.13-19.046-30.627-14.628-19.046 18.131-14.627 30.627c2.416 6.835 7.792 12.211 14.627 14.628zm8-30.624c4.418 0 8 3.582 8 8s-3.582 8-8 8-8-3.582-8-8c.005-4.416 3.584-7.995 8-8z" data-original="#000000" class="active-path" data-old_color="#000000" fill="#E00000"/><path d="m248.019 176.013v-32c0-2.122-.843-4.157-2.343-5.657l-29.657-29.656v-62.063c12.497-4.418 19.046-18.131 14.627-30.627-4.418-12.497-18.131-19.046-30.627-14.627s-19.046 18.131-14.627 30.627c2.416 6.835 7.793 12.211 14.627 14.627v65.376c0 2.122.843 4.157 2.343 5.657l29.657 29.656v28.687zm-40-144c-4.418 0-8-3.582-8-8s3.582-8 8-8 8 3.582 8 8c-.005 4.416-3.584 7.995-8 8z" data-original="#000000" class="active-path" data-old_color="#000000" fill="#E00000"/><path d="m152.019 120.013v-32c0-2.518-1.186-4.889-3.2-6.4l-28.8-21.6v-13.376c12.497-4.418 19.046-18.131 14.627-30.627-4.418-12.497-18.131-19.046-30.627-14.627s-19.046 18.13-14.627 30.626c2.416 6.835 7.793 12.211 14.627 14.627v17.376c0 2.518 1.186 4.889 3.2 6.4l28.8 21.6v28h16zm-40-88c-4.418 0-8-3.582-8-8s3.582-8 8-8 8 3.582 8 8c-.005 4.416-3.584 7.995-8 8z" data-original="#000000" class="active-path" data-old_color="#000000" fill="#E00000"/><path d="m288.019 92.294 20.438-13.625c2.225-1.484 3.562-3.981 3.562-6.656v-25.376c12.497-4.418 19.046-18.131 14.627-30.627s-18.13-19.046-30.627-14.628-19.046 18.131-14.627 30.627c2.416 6.835 7.793 12.211 14.627 14.627v21.095l-20.438 13.625c-2.225 1.484-3.562 3.981-3.562 6.656v16h16zm16-76.281c4.418 0 8 3.582 8 8s-3.582 8-8 8-8-3.582-8-8c.005-4.416 3.584-7.995 8-8z" data-original="#000000" class="active-path" data-old_color="#000000" fill="#E00000"/><path d="m272.019 120.013h16v56h-16z" data-original="#000000" class="active-path" data-old_color="#000000" fill="#E00000"/><path d="m328.019 160.013h16v16h-16z" data-original="#000000" class="active-path" data-old_color="#000000" fill="#E00000"/><path d="m413.048 88.585c-3.037 1.215-5.029 4.157-5.029 7.428v80h16v-74.583l34.971-13.989c3.037-1.215 5.029-4.157 5.029-7.428v-33.376c12.497-4.418 19.046-18.131 14.627-30.627s-18.13-19.046-30.627-14.628-19.046 18.131-14.627 30.627c2.416 6.835 7.793 12.211 14.627 14.627v27.959zm42.971-72.572c4.418 0 8 3.582 8 8s-3.582 8-8 8-8-3.582-8-8c.005-4.416 3.584-7.995 8-8z" data-original="#000000" class="active-path" data-old_color="#000000" fill="#E00000"/><path d="m.352 104.01h16v41.339h-16z" transform="matrix(1 -.016 .016 1 -2.01 .151)" data-original="#000000" class="active-path" data-old_color="#000000" fill="#E00000"/><path d="m368.019 104.013h16v72h-16z" data-original="#000000" class="active-path" data-old_color="#000000" fill="#E00000"/><path d="m240.019 48.013h16v40h-16z" data-original="#000000" class="active-path" data-old_color="#000000" fill="#E00000"/><path d="m64.019 32.013h16v32h-16z" data-original="#000000" class="active-path" data-old_color="#000000" fill="#E00000"/><path d="m24.019 480.013c13.255-.005 23.996-10.755 23.99-24.01-.004-10.163-6.41-19.222-15.99-22.614v-27.959l34.971-13.989c3.037-1.215 5.029-4.157 5.029-7.428v-24h-16v18.583l-34.971 13.989c-3.037 1.215-5.029 4.157-5.029 7.428v33.376c-12.495 4.424-19.038 18.139-14.614 30.634 3.392 9.58 12.451 15.986 22.614 15.99zm0-32c4.418 0 8 3.582 8 8s-3.582 8-8 8-8-3.582-8-8c.005-4.416 3.584-7.995 8-8z" data-original="#000000" class="active-path" data-old_color="#000000" fill="#E00000"/><path d="m464.019 433.389v-25.376c0-2.254-.951-4.403-2.619-5.919l-85.381-77.62v-20.461h-16v24c0 2.254.951 4.403 2.619 5.919l85.381 77.62v21.837c-12.497 4.418-19.046 18.131-14.627 30.627 4.418 12.497 18.131 19.046 30.627 14.627 12.497-4.418 19.046-18.131 14.627-30.627-2.416-6.834-7.792-12.211-14.627-14.627zm-8 30.624c-4.418 0-8-3.582-8-8s3.582-8 8-8 8 3.582 8 8c-.005 4.416-3.584 7.995-8 8z" data-original="#000000" class="active-path" data-old_color="#000000" fill="#E00000"/><path d="m232.019 304.013v32c0 2.122.843 4.157 2.343 5.657l29.657 29.656v20.687h16v-24c0-2.122-.843-4.157-2.343-5.657l-29.657-29.656v-28.687z" data-original="#000000" class="active-path" data-old_color="#000000" fill="#E00000"/><path d="m320.019 392.013c0 2.81 1.474 5.414 3.884 6.86l36.116 21.669v12.847c-12.497 4.418-19.046 18.131-14.627 30.627 4.418 12.497 18.131 19.046 30.627 14.627 12.497-4.418 19.046-18.131 14.627-30.627-2.416-6.835-7.793-12.211-14.627-14.627v-17.376c0-2.81-1.474-5.414-3.884-6.86l-36.116-21.669v-11.471h-16zm48 56c4.418 0 8 3.582 8 8s-3.582 8-8 8-8-3.582-8-8c.005-4.416 3.584-7.995 8-8z" data-original="#000000" class="active-path" data-old_color="#000000" fill="#E00000"/><path d="m207.174 395.591c.556-1.111.845-2.336.845-3.578v-56h-16v54.111l-7.155 14.311c-.556 1.111-.845 2.336-.845 3.578v25.376c-12.497 4.418-19.046 18.131-14.627 30.627 4.418 12.497 18.131 19.046 30.627 14.627 12.497-4.418 19.046-18.131 14.627-30.627-2.416-6.835-7.793-12.211-14.627-14.627v-23.487zm-15.155 68.422c-4.418 0-8-3.582-8-8s3.582-8 8-8 8 3.582 8 8c-.005 4.416-3.584 7.995-8 8z" data-original="#000000" class="active-path" data-old_color="#000000" fill="#E00000"/><path d="m147.597 407.168c2.71-1.355 4.422-4.125 4.422-7.155v-32h-16v27.056l-27.578 13.789c-2.71 1.355-4.422 4.125-4.422 7.155v17.376c-12.497 4.418-19.046 18.131-14.627 30.627 4.418 12.497 18.131 19.046 30.627 14.627 12.497-4.418 19.046-18.131 14.627-30.627-2.416-6.835-7.793-12.211-14.627-14.627v-12.432zm-35.578 56.845c-4.418 0-8-3.582-8-8s3.582-8 8-8 8 3.582 8 8c-.005 4.416-3.584 7.995-8 8z" data-original="#000000" class="active-path" data-old_color="#000000" fill="#E00000"/><path d="m456.019 312.013c-7.506.001-14.578 3.517-19.109 9.5l-12.891-6.444v-11.056h-16v16c0 3.03 1.712 5.8 4.422 7.155l19.6 9.8c.527 13.244 11.692 23.553 24.936 23.026s23.553-11.692 23.026-24.936c-.513-12.874-11.099-23.047-23.984-23.045zm0 32c-4.416-.005-7.995-3.584-8-8l3.188-6.375c3.524-2.661 8.537-1.962 11.198 1.562s1.962 8.537-1.562 11.198c-1.389 1.049-3.083 1.616-4.824 1.615z" data-original="#000000" class="active-path" data-old_color="#000000" fill="#E00000"/><path d="m320.019 304.013h16v56h-16z" data-original="#000000" class="active-path" data-old_color="#000000" fill="#E00000"/><path d="m280.019 304.013h16v32h-16z" data-original="#000000" class="active-path" data-old_color="#000000" fill="#E00000"/><path d="m96.019 368.013h16v24h-16z" data-original="#000000" class="active-path" data-old_color="#000000" fill="#E00000"/><path d="m280.019 408.013h-16v25.376c-12.497 4.418-19.046 18.131-14.627 30.627 4.418 12.497 18.131 19.046 30.627 14.627 12.497-4.418 19.046-18.131 14.627-30.627-2.416-6.835-7.793-12.211-14.627-14.627zm-8 56c-4.418 0-8-3.582-8-8s3.582-8 8-8 8 3.582 8 8c-.005 4.416-3.584 7.995-8 8z" data-original="#000000" class="active-path" data-old_color="#000000" fill="#E00000"/><path d="m160.019 40.013h16v32h-16z" data-original="#000000" class="active-path" data-old_color="#000000" fill="#E00000"/></g> </svg>
