<?xml version="1.0"?>
<svg xmlns="http://www.w3.org/2000/svg" xmlns:xlink="http://www.w3.org/1999/xlink" version="1.1" id="Capa_1" x="0px" y="0px" viewBox="0 0 512 512" style="enable-background:new 0 0 512 512;" xml:space="preserve" width="512px" height="512px" class=""><g><g>
	<g>
		<path d="M509.07,93.916l-91-90.987C416.195,1.054,413.652,0,411,0H135.987c-5.522,0-10,4.478-10,10s4.478,10,10,10H401v61    c0,16.542,13.458,30,30,30h61v371c0,5.514-4.486,10-10,10H155.987c-5.514,0-10-4.486-10-10v-34c0-5.522-4.478-10-10-10    c-5.522,0-10,4.478-10,10v34c0,16.542,13.458,30,30,30H482c16.542,0,30-13.458,30-30V100.987    C512,98.335,510.946,95.791,509.07,93.916z M431,91c-5.514,0-10-4.486-10-10V34.14L477.868,91H431z" data-original="#000000" class="active-path" data-old_color="#000000" fill="#714CDF"/>
	</g>
</g><g>
	<g>
		<path d="M232.989,260.921h-16.344c-13.653,0-24.762,11.107-24.762,24.761v13.093c0,13.654,11.108,24.761,24.762,24.761h16.344    c13.653,0,24.761-11.107,24.761-24.761v-13.093C257.75,272.029,246.643,260.921,232.989,260.921z M237.75,298.776    c0,2.625-2.136,4.761-4.761,4.761h-16.344c-2.626,0-4.762-2.136-4.762-4.761v-13.093c0-2.625,2.136-4.761,4.762-4.761h16.344    c2.625,0,4.761,2.136,4.761,4.761V298.776z" data-original="#000000" class="active-path" data-old_color="#000000" fill="#714CDF"/>
	</g>
</g><g>
	<g>
		<path d="M147.689,260.922h-16.345c-13.654,0-24.761,11.107-24.761,24.761v13.093c0,13.653,11.107,24.761,24.761,24.761h16.345    c13.653,0,24.761-11.107,24.761-24.761v-13.093C172.45,272.03,161.343,260.922,147.689,260.922z M152.45,298.776    c0,2.625-2.136,4.761-4.761,4.761h-16.345c-2.625,0-4.761-2.136-4.761-4.761v-13.093c0-2.625,2.136-4.761,4.761-4.761h16.345    c2.625,0,4.761,2.136,4.761,4.761V298.776z" data-original="#000000" class="active-path" data-old_color="#000000" fill="#714CDF"/>
	</g>
</g><g>
	<g>
		<path d="M345.55,356.351c-5.09-5.09-11.856-7.893-19.055-7.893c-7.199,0-13.965,2.803-19.055,7.893l-0.157,0.157    c-1.688,1.689-4.438,1.689-6.125,0l-15.185-15.185c5.216-7.614,8.274-16.816,8.274-26.722v-35.309    c0-15.592-3.204-30.448-8.982-43.951l15.893-15.893c1.104-1.104,2.393-1.269,3.063-1.269s1.959,0.165,3.085,1.29l0.135,0.135    c10.508,10.506,27.602,10.506,38.109,0l10.56-10.56c5.09-5.09,7.893-11.856,7.893-19.055s-2.803-13.965-7.893-19.055    l-10.56-10.559c-4.419-4.42-10.103-7.116-16.235-7.749c-0.622-5.928-3.199-11.688-7.731-16.22l-10.561-10.56    c-10.508-10.506-27.604-10.506-38.109,0l-10.56,10.56c-10.506,10.507-10.506,27.603,0,38.11c1.104,1.104,1.269,2.393,1.269,3.063    c0,0.67-0.165,1.959-1.269,3.063l-10.739,10.739c-19.107-15.127-43.24-24.171-69.446-24.171c-26.291,0-50.494,9.104-69.63,24.319    l-10.887-10.887c-1.104-1.104-1.269-2.393-1.269-3.063c0-0.67,0.165-1.959,1.269-3.063c10.506-10.507,10.506-27.603,0-38.109    l-10.56-10.56c-10.506-10.506-27.601-10.505-38.11,0l-10.56,10.56c-4.532,4.532-7.109,10.292-7.731,16.22    c-6.133,0.633-11.816,3.329-16.235,7.748l-10.56,10.56C2.803,176.027,0,182.794,0,189.992s2.803,13.965,7.893,19.055l10.56,10.56    c10.507,10.506,27.602,10.506,38.087,0.021l0.18-0.178c1.688-1.689,4.438-1.689,6.125,0l16.124,16.123    c-5.716,13.441-8.881,28.218-8.881,43.72v35.309c0,9.82,3.002,18.952,8.136,26.528l-15.379,15.379    c-1.688,1.689-4.438,1.689-6.125,0l-0.157-0.157c-10.508-10.506-27.602-10.506-38.109,0l-10.56,10.561    c-10.506,10.507-10.506,27.603,0,38.109l10.56,10.56c4.42,4.419,10.103,7.114,16.235,7.748c0.622,5.927,3.199,11.686,7.731,16.219    l10.561,10.56c5.254,5.253,12.154,7.88,19.055,7.88s13.802-2.627,19.055-7.88l10.56-10.56c10.507-10.507,10.507-27.603,0-38.109    c-1.107-1.105-1.271-2.394-1.271-3.064s0.164-1.959,1.269-3.063l25.416-25.417v9.128c0,17.08,13.896,30.976,30.976,30.976h49.984    c17.08,0,30.976-13.896,30.976-30.976v-7.063l23.352,23.352c1.104,1.104,1.269,2.393,1.269,3.063s-0.164,1.959-1.269,3.063    c-10.507,10.507-10.507,27.603,0,38.109l10.56,10.56c5.254,5.254,12.153,7.88,19.055,7.88c6.899,0,13.802-2.628,19.056-7.88    l10.56-10.56c4.532-4.533,7.109-10.292,7.731-16.219c6.133-0.634,11.815-3.329,16.235-7.748l10.56-10.56    c10.506-10.507,10.506-27.603,0-38.11L345.55,356.351z M276.494,194.788c9.486-9.487,9.486-24.923,0-34.409    c-2.709-2.71-2.709-7.117,0-9.826l10.56-10.56c2.709-2.709,7.116-2.709,9.825,0l10.56,10.56c2.709,2.709,2.709,7.116,0,9.826    c-1.953,1.952-2.929,4.512-2.929,7.071c0,2.559,0.977,5.118,2.93,7.07c3.904,3.906,10.237,3.905,14.142-0.001    c1.313-1.312,3.057-2.035,4.912-2.035s3.6,0.724,4.912,2.036l10.56,10.56c2.709,2.708,2.709,7.116,0,9.824l-10.56,10.56    c-1.312,1.313-3.057,2.035-4.912,2.035s-3.601-0.723-4.935-2.057l-0.135-0.135c-4.596-4.596-10.706-7.126-17.205-7.126    c-6.499,0-12.609,2.53-17.205,7.126l-11.709,11.709c-2.793-4.163-5.859-8.126-9.169-11.87L276.494,194.788z M76.986,205.308    c-9.487-9.487-24.924-9.485-34.388-0.021l-0.18,0.178c-1.312,1.313-3.057,2.035-4.912,2.035c-1.855,0-3.601-0.723-4.912-2.035    l-10.56-10.56c-2.709-2.708-2.709-7.116,0-9.824l10.56-10.561c1.313-1.312,3.057-2.035,4.912-2.035c1.855,0,3.6,0.724,4.912,2.035    c3.903,3.905,10.236,3.906,14.142,0.001c1.953-1.952,2.93-4.512,2.93-7.07c0-2.56-0.976-5.119-2.929-7.071    c-2.709-2.71-2.709-7.117,0-9.826l10.559-10.56c2.711-2.709,7.119-2.709,9.826,0l10.56,10.56c2.709,2.709,2.709,7.116,0,9.825    c-9.486,9.487-9.486,24.923,0,34.41l10.534,10.534c-3.303,3.752-6.36,7.724-9.145,11.894L76.986,205.308z M87.505,381.171    c-9.485,9.487-9.485,24.923,0.001,34.41c2.709,2.708,2.709,7.116,0,9.824l-10.56,10.56c-2.709,2.709-7.116,2.709-9.825,0    l-10.56-10.56c-1.313-1.312-2.035-3.057-2.035-4.912s0.723-3.601,2.035-4.912c1.952-1.953,2.929-4.512,2.929-7.071    s-0.977-5.118-2.929-7.071c-3.906-3.904-10.236-3.904-14.143,0c-1.312,1.313-3.057,2.035-4.912,2.035    c-1.855,0-3.601-0.723-4.912-2.035l-10.56-10.56c-2.709-2.709-2.709-7.116,0-9.825l10.56-10.56    c1.312-1.313,3.057-2.035,4.912-2.035c1.855,0,3.601,0.723,4.912,2.035l0.157,0.157c9.486,9.486,24.924,9.486,34.41,0    l15.683-15.682c4.556,2.812,9.621,4.875,15.023,6.015L87.505,381.171z M229,342.009c-5.522,0-10,4.478-10,10v27.016    c0,4.693-2.966,8.695-7.117,10.262V384.5c0-5.522-4.478-10-10-10c-5.522,0-10,4.478-10,10v5.5H178.5v-5.5c0-5.522-4.478-10-10-10    c-5.522,0-10,4.478-10,10v5.5h-0.46c-6.052,0-10.976-4.924-10.976-10.976v-27.016c0-5.522-4.478-10-10-10h-19.572    c-15.112,0-27.406-12.294-27.406-27.406v-35.309c0-50.773,41.307-92.08,92.08-92.08s92.08,41.308,92.08,92.081v35.309    c0,15.112-12.294,27.406-27.406,27.406H229z M341.965,390.879l-10.56,10.56c-1.312,1.313-3.057,2.035-4.912,2.035    s-3.601-0.723-4.912-2.035c-3.906-3.904-10.236-3.904-14.143,0c-1.952,1.953-2.929,4.512-2.929,7.071s0.977,5.118,2.929,7.071    c2.709,2.708,2.709,7.116,0,9.824l-10.559,10.56c-2.711,2.709-7.119,2.709-9.826,0l-10.56-10.56c-2.709-2.708-2.709-7.116,0-9.824    c9.486-9.487,9.486-24.923,0-34.41l-20.124-20.125c5.423-1.111,10.511-3.152,15.091-5.947l15.553,15.553    c4.596,4.595,10.707,7.125,17.206,7.125c6.499,0,12.609-2.53,17.205-7.126l0.157-0.157c1.312-1.313,3.057-2.035,4.912-2.035    s3.601,0.723,4.912,2.035l10.56,10.559C344.674,383.763,344.674,388.17,341.965,390.879z" data-original="#000000" class="active-path" data-old_color="#000000" fill="#714CDF"/>
	</g>
</g><g>
	<g>
		<path d="M452.281,246.007h-46.26c-5.522,0-10,4.478-10,10c0,5.522,4.478,10,10,10h46.26c5.522,0,10-4.478,10-10    C462.281,250.485,457.803,246.007,452.281,246.007z" data-original="#000000" class="active-path" data-old_color="#000000" fill="#714CDF"/>
	</g>
</g><g>
	<g>
		<path d="M452.281,286.007H357c-5.522,0-10,4.477-10,10c0,5.522,4.478,10,10,10h95.281c5.522,0,10-4.478,10-10    C462.281,290.485,457.803,286.007,452.281,286.007z" data-original="#000000" class="active-path" data-old_color="#000000" fill="#714CDF"/>
	</g>
</g><g>
	<g>
		<path d="M376.069,248.94c-1.859-1.86-4.439-2.93-7.069-2.93s-5.21,1.07-7.07,2.93c-1.86,1.86-2.93,4.44-2.93,7.07    c0,2.63,1.069,5.21,2.93,7.07c1.86,1.859,4.44,2.93,7.07,2.93s5.21-1.07,7.069-2.93c1.86-1.86,2.931-4.44,2.931-7.07    C379,253.37,377.93,250.8,376.069,248.94z" data-original="#000000" class="active-path" data-old_color="#000000" fill="#714CDF"/>
	</g>
</g><g>
	<g>
		<path d="M339.569,248.939c-1.859-1.859-4.439-2.93-7.069-2.93s-5.21,1.071-7.07,2.93c-1.86,1.86-2.93,4.44-2.93,7.07    s1.069,5.21,2.93,7.07c1.86,1.859,4.44,2.93,7.07,2.93s5.21-1.07,7.069-2.93c1.86-1.87,2.931-4.44,2.931-7.07    S341.43,250.799,339.569,248.939z" data-original="#000000" class="active-path" data-old_color="#000000" fill="#714CDF"/>
	</g>
</g><g>
	<g>
		<path d="M130.149,48H10.26c-5.522,0-10,4.478-10,10s4.477,10,10,10h119.889c5.522,0,10-4.478,10-10S135.671,48,130.149,48z" data-original="#000000" class="active-path" data-old_color="#000000" fill="#714CDF"/>
	</g>
</g><g>
	<g>
		<path d="M206.706,48H173.5c-5.522,0-10,4.478-10,10s4.478,10,10,10h33.206c5.522,0,10-4.478,10-10S212.229,48,206.706,48z" data-original="#000000" class="active-path" data-old_color="#000000" fill="#714CDF"/>
	</g>
</g><g>
	<g>
		<path d="M40.232,96H10.26c-5.522,0-10,4.478-10,10c0,5.522,4.477,10,10,10h29.972c5.522,0,10-4.478,10-10    C50.232,100.478,45.754,96,40.232,96z" data-original="#000000" class="active-path" data-old_color="#000000" fill="#714CDF"/>
	</g>
</g><g>
	<g>
		<path d="M168.75,96H101c-5.522,0-10,4.478-10,10c0,5.522,4.478,10,10,10h67.75c5.522,0,10-4.478,10-10    C178.75,100.478,174.272,96,168.75,96z" data-original="#000000" class="active-path" data-old_color="#000000" fill="#714CDF"/>
	</g>
</g><g>
	<g>
		<path d="M213.78,98.93c-1.86-1.86-4.44-2.93-7.07-2.93c-2.641,0-5.22,1.069-7.08,2.93c-1.86,1.86-2.92,4.44-2.92,7.07    s1.06,5.21,2.92,7.069c1.87,1.86,4.439,2.931,7.08,2.931c2.63,0,5.21-1.07,7.07-2.931c1.859-1.859,2.93-4.439,2.93-7.069    S215.64,100.79,213.78,98.93z" data-original="#000000" class="active-path" data-old_color="#000000" fill="#714CDF"/>
	</g>
</g></g> </svg>
